<?xml version="1.0" standalone="no"?>
<!DOCTYPE svg PUBLIC "-//W3C//DTD SVG 20010904//EN"
 "http://www.w3.org/TR/2001/REC-SVG-20010904/DTD/svg10.dtd">
<svg version="1.0" xmlns="http://www.w3.org/2000/svg"
 width="150.000000pt" height="150.000000pt" viewBox="0 0 150.000000 150.000000"
 preserveAspectRatio="xMidYMid meet">
<metadata>
Created by potrace 1.11, written by Peter Selinger 2001-2013
</metadata>
<g transform="translate(0.000000,150.000000) scale(0.100000,-0.100000)"
fill="#000000" stroke="none">
<path d="M655 1484 c-305 -50 -541 -260 -621 -554 -27 -98 -25 -272 4 -375 72
-251 257 -437 512 -516 108 -34 292 -34 400 0 134 41 226 96 320 191 95 94
150 186 191 320 34 108 34 292 0 400 -79 257 -275 448 -526 514 -62 17 -227
28 -280 20z m169 -40 c9 -3 14 -9 12 -13 -3 -4 -12 -72 -21 -151 -33 -296 -38
-325 -61 -328 -19 -3 -22 4 -28 75 -4 43 -15 152 -25 243 -9 91 -16 168 -14
173 5 8 115 10 137 1z m-160 -26 c10 -47 48 -419 44 -424 -4 -3 -98 419 -98
439 0 4 11 7 25 7 18 0 26 -6 29 -22z m240 13 c3 -5 -5 -53 -18 -107 -14 -55
-39 -157 -56 -229 -32 -133 -48 -175 -36 -95 8 49 31 217 47 344 5 44 12 83
15 88 7 11 41 10 48 -1z m-279 -165 c39 -177 40 -185 23 -168 -7 7 -23 12 -35
12 -21 0 -32 17 -84 126 -33 69 -60 130 -62 137 -2 9 113 60 120 53 1 -1 18
-73 38 -160z m381 133 c27 -11 50 -22 52 -24 2 -1 -26 -58 -62 -126 -52 -100
-70 -125 -91 -131 -14 -3 -33 -12 -41 -19 -8 -6 -14 -9 -14 -6 0 13 71 310 76
318 8 14 28 11 80 -12z m-501 -150 c33 -67 62 -126 63 -130 2 -5 -5 -9 -16 -9
-15 0 -39 30 -93 115 -68 110 -71 116 -53 130 11 8 24 15 29 15 6 0 37 -55 70
-121z m605 96 c10 -12 0 -33 -56 -121 -65 -100 -87 -124 -100 -111 -9 9 118
247 132 247 6 0 17 -7 24 -15z m-657 -141 l65 -101 -57 -11 -56 -10 -72 76
-72 77 51 48 c41 37 55 45 64 35 6 -7 41 -58 77 -114z m737 80 c21 -20 43 -33
48 -30 11 7 55 -38 46 -47 -4 -4 -1 -13 6 -22 7 -9 11 -17 9 -18 -2 -2 -31
-24 -65 -50 -54 -42 -111 -63 -102 -38 2 6 35 39 75 75 60 54 70 66 57 76 -11
10 -14 10 -15 -1 -1 -8 -34 -44 -74 -81 l-72 -66 -49 10 c-27 6 -50 12 -52 13
-6 5 130 215 139 215 5 0 27 -16 49 -36z m-825 -212 c-19 -3 -41 9 -83 44 -31
26 -60 50 -64 54 -4 3 -1 16 8 29 l17 23 74 -74 c70 -69 72 -73 48 -76z m999
29 c34 -66 35 -69 17 -85 -17 -16 -19 -16 -24 4 -3 11 -1 18 3 15 5 -3 10 1
13 7 5 15 -14 56 -56 118 -22 32 -24 40 -10 27 12 -10 37 -49 57 -86z m-1104
13 c33 -26 57 -51 54 -55 -8 -14 -128 -10 -148 4 -18 13 -18 15 5 55 13 23 25
42 26 42 2 0 30 -21 63 -46z m1073 7 c9 -16 17 -34 17 -40 0 -13 -54 -23 -110
-19 l-44 3 55 42 c30 23 56 42 59 42 3 1 13 -12 23 -28z m-40 -78 c-13 -2 -35
-2 -50 0 -16 2 -5 4 22 4 28 0 40 -2 28 -4z m-438 -83 c-30 -67 -51 -49 -33
30 12 51 12 51 32 31 19 -20 19 -21 1 -61z m132 58 c-3 -8 -6 -5 -6 6 -1 11 2
17 5 13 3 -3 4 -12 1 -19z m-294 -55 c9 -44 -7 -50 -31 -11 -19 29 -19 33 -4
56 14 22 16 23 22 6 4 -11 10 -33 13 -51z m712 37 c-4 -11 -2 -20 4 -20 13 0
41 -94 41 -140 0 -20 -6 -42 -12 -50 -11 -12 -10 -12 5 -1 16 12 17 9 16 -40
0 -30 -4 -74 -9 -99 -5 -25 -12 -61 -15 -80 -16 -81 -82 -217 -103 -213 -6 2
-9 -4 -6 -12 7 -16 -142 -173 -153 -162 -3 4 -12 -1 -20 -11 -8 -9 -12 -11 -8
-4 3 6 1 12 -4 12 -6 0 -11 7 -11 15 0 18 5 18 29 5 14 -7 26 -2 52 21 23 21
26 25 9 15 l-26 -16 -37 76 c-21 42 -36 78 -34 80 2 2 34 -23 70 -57 37 -33
67 -57 67 -53 0 4 -34 42 -75 85 -103 105 -99 128 8 48 45 -34 87 -68 94 -76
8 -10 13 -11 18 -3 4 6 5 12 4 14 -85 60 -206 164 -211 180 -11 37 -9 69 5 63
123 -55 270 -117 275 -117 20 0 -28 25 -143 75 -71 31 -135 61 -142 67 -34 28
10 21 149 -23 83 -27 156 -49 162 -49 25 0 -16 17 -161 65 l-158 53 -3 35 -3
34 98 -4 c54 -2 119 -5 146 -7 26 -2 47 0 47 5 0 4 -59 10 -131 14 -81 5 -127
11 -121 17 5 5 72 14 148 19 76 6 143 14 148 19 9 9 -13 8 -141 -6 -74 -8 -82
4 -24 37 37 21 71 72 57 86 -11 11 14 31 32 26 15 -4 18 1 14 31 -4 31 -1 36
22 42 14 3 26 10 26 15 0 5 3 9 6 9 3 0 2 -9 -1 -20z m-1262 -31 l17 -31 -27
7 c-35 9 -36 9 -28 34 9 29 17 26 38 -10z m1182 11 c-3 -5 -11 -10 -16 -10 -6
0 -7 5 -4 10 3 6 11 10 16 10 6 0 7 -4 4 -10z m-608 -22 c-3 -8 -6 -5 -6 6 -1
11 2 17 5 13 3 -3 4 -12 1 -19z m173 8 c0 -10 -43 -77 -47 -73 -6 7 29 77 39
77 4 0 8 -2 8 -4z m378 -3 c-15 -2 -42 -2 -60 0 -18 2 -6 4 27 4 33 0 48 -2
33 -4z m-613 -35 l16 -33 -21 24 c-11 13 -20 27 -20 32 0 18 10 8 25 -23z
m-476 -32 c13 -11 27 -31 32 -44 5 -13 22 -31 39 -40 16 -9 30 -19 30 -22 0
-3 -48 -1 -106 4 l-106 9 7 46 c13 90 13 91 48 79 18 -6 43 -20 56 -32z m697
-25 c-32 -32 -34 -13 -3 34 20 31 22 32 25 13 2 -12 -7 -31 -22 -47z m-216 -8
c0 -7 -5 -13 -12 -13 -9 0 -9 -3 0 -12 17 -17 15 -33 -3 -18 -9 7 -13 21 -10
31 4 11 2 19 -4 19 -6 0 -11 15 -11 33 l0 32 20 -30 c11 -16 20 -36 20 -42z
m381 44 c-10 -9 -11 -8 -5 6 3 10 9 15 12 12 3 -3 0 -11 -7 -18z m152 -24 c-7
-2 -21 -2 -30 0 -10 3 -4 5 12 5 17 0 24 -2 18 -5z m-318 -53 c-10 -11 -20
-18 -23 -15 -3 3 3 14 13 25 10 11 20 18 23 15 3 -3 -3 -14 -13 -25z m102 5
c-4 -8 -12 -15 -19 -14 -10 0 -10 2 0 6 6 2 12 12 12 21 0 8 3 13 6 9 4 -3 4
-13 1 -22z m-672 -81 c11 -8 34 -14 52 -14 18 0 33 -4 33 -10 0 -10 -312 -15
-322 -5 -3 3 -3 16 -1 30 l5 24 107 -6 c64 -4 114 -11 126 -19z m462 10 c-3
-3 -12 -4 -19 -1 -8 3 -5 6 6 6 11 1 17 -2 13 -5z m340 -10 c-3 -3 -12 -4 -19
-1 -8 3 -5 6 6 6 11 1 17 -2 13 -5z m-679 -84 c-3 -20 -19 -27 -166 -63 -96
-24 -166 -36 -172 -31 -4 5 -11 35 -15 66 l-7 58 173 2 c96 2 178 0 182 -3 5
-4 7 -17 5 -29z m439 -9 c2 -29 -20 -50 -32 -31 -8 13 -138 13 -151 0 -5 -5
-15 -5 -23 -1 -10 7 -11 13 -2 29 10 19 22 22 109 25 53 1 97 4 97 5 0 1 1
-11 2 -27z m-439 -43 c-4 -12 -55 -35 -226 -103 l-83 -34 -10 26 c-5 15 -6 29
-2 33 4 4 66 22 138 40 72 18 139 36 150 41 29 11 37 11 33 -3z m548 -16 c13
-9 24 -20 24 -24 0 -4 7 -14 16 -22 14 -15 14 -16 -3 -16 -11 0 -24 -5 -31
-12 -9 -9 -12 -7 -12 10 0 17 -9 24 -42 33 -40 10 -44 9 -65 -15 -23 -27 -63
-35 -63 -13 0 17 48 63 80 76 30 12 64 6 96 -17z m-278 -8 c12 -8 27 -24 32
-35 18 -32 -16 -37 -41 -5 -16 21 -29 26 -62 26 l-42 0 -16 -59 c-15 -56 -14
-60 3 -64 27 -7 23 -37 -5 -37 -20 0 -24 -8 -35 -56 -6 -31 -9 -61 -6 -65 9
-16 118 -10 142 7 26 18 30 65 7 84 -27 22 -16 80 16 80 20 0 26 -15 9 -25 -6
-4 -3 -16 10 -32 35 -44 21 -106 -30 -136 -20 -12 -52 -17 -114 -17 -47 0 -86
2 -86 4 0 7 71 319 75 334 6 18 115 16 143 -4z m369 -21 c-3 -10 -5 -4 -5 12
0 17 2 24 5 18 2 -7 2 -21 0 -30z m-643 -32 c-6 -36 -14 -47 -73 -90 -36 -26
-86 -61 -110 -77 -42 -28 -44 -28 -58 -9 -8 11 -23 37 -34 58 l-19 37 32 15
c68 31 263 112 266 110 1 -1 0 -21 -4 -44z m243 -1 c6 -22 13 -23 122 -20 53
1 67 5 82 23 14 18 18 19 22 7 2 -8 16 -53 31 -100 31 -102 31 -100 6 -100
-15 0 -23 14 -40 70 l-21 71 -107 -3 -107 -3 -14 -68 c-11 -53 -18 -67 -30
-64 -9 2 -15 9 -13 17 2 7 10 48 18 89 8 42 17 82 19 89 7 19 26 14 32 -8z
m410 -42 c-3 -7 -5 -2 -5 12 0 14 2 19 5 13 2 -7 2 -19 0 -25z m-709 -115
c-23 -25 -60 -59 -82 -76 l-39 -31 -19 24 c-20 25 -20 25 3 40 13 8 57 40 99
71 65 48 75 53 78 36 2 -12 -12 -36 -40 -64z m462 57 c0 -75 60 -147 114 -136
38 8 58 26 53 46 -3 12 3 16 22 16 22 0 26 -4 28 -32 4 -42 -42 -85 -84 -79
-16 2 -39 4 -52 4 -24 1 -103 73 -110 101 -2 8 -6 36 -9 63 -4 43 -3 47 17 47
17 0 21 -6 21 -30z m-440 -95 c-18 -47 -49 -101 -65 -115 -14 -11 -19 -10 -38
8 l-22 22 60 55 c67 61 79 66 65 30z m760 -80 c0 -5 -5 -3 -10 5 -5 8 -10 20
-10 25 0 6 5 3 10 -5 5 -8 10 -19 10 -25z m-22 -42 c-10 -2 -26 -2 -35 0 -10
3 -2 5 17 5 19 0 27 -2 18 -5z m-9 -45 c11 -29 5 -39 -16 -31 -11 4 -14 3 -9
-5 4 -8 2 -10 -7 -6 -12 4 -37 45 -37 59 0 3 14 5 30 5 23 0 33 -6 39 -22z
m-739 8 c0 -11 -19 -15 -25 -6 -3 5 1 10 9 10 9 0 16 -2 16 -4z m75 -26 c-15
-29 -16 -30 -40 -14 -32 21 -22 44 21 44 l35 0 -16 -30z m128 -1 c25 -10 27
-15 21 -43 -3 -17 -8 -33 -10 -35 -5 -5 -103 25 -123 38 -11 7 -10 14 4 39 19
32 32 32 108 1z m464 4 c10 -16 22 -32 28 -36 6 -5 4 -7 -5 -6 -28 3 -41 -1
-35 -11 3 -6 -1 -7 -9 -4 -9 3 -16 1 -16 -5 0 -6 -7 -8 -17 -4 -10 4 -14 2
-10 -4 5 -7 -1 -9 -15 -5 -12 3 -19 1 -15 -5 3 -5 1 -10 -6 -11 -7 -1 -26 -4
-44 -6 -17 -2 -36 -7 -41 -10 -19 -11 -24 45 -6 65 24 27 32 24 40 -16 3 -19
10 -35 15 -35 5 0 7 11 3 25 -13 52 -10 57 41 76 67 24 72 23 92 -8z m-371
-67 c-3 -12 -6 -24 -6 -28 0 -5 -9 -8 -20 -8 -25 0 -34 21 -26 55 6 22 9 23
32 13 19 -9 24 -17 20 -32z m64 -38 c0 -12 -38 -10 -45 2 -4 6 -4 18 -1 27 6
14 9 14 26 -2 11 -10 20 -22 20 -27z m86 3 c-4 -6 -17 -11 -28 -11 -21 0 -21
1 -3 20 19 21 44 13 31 -9z"/>
<path d="M1390 944 l-25 -14 28 0 c17 0 27 5 27 15 0 8 -1 15 -2 14 -2 -1 -14
-7 -28 -15z"/>
<path d="M1431 864 c0 -11 3 -14 6 -6 3 7 2 16 -1 19 -3 4 -6 -2 -5 -13z"/>
<path d="M1380 710 c0 -6 14 -9 30 -8 17 1 30 6 30 10 0 4 -13 8 -30 8 -16 0
-30 -5 -30 -10z"/>
<path d="M1016 292 l-19 -27 24 22 c12 12 21 24 18 27 -2 2 -13 -8 -23 -22z"/>
</g>
</svg>
